<svg width="250" height="250" viewBox="0 0 250 250" fill="none" xmlns="http://www.w3.org/2000/svg">
<rect width="250" height="250" rx="125" fill="white"/>
<path d="M176.606 111.721C174.618 109.644 172.561 107.503 171.786 105.62C171.069 103.896 171.027 101.037 170.984 98.2689C170.905 93.1221 170.821 87.2896 166.766 83.2344C162.71 79.1791 156.878 79.0947 151.731 79.0156C148.963 78.9734 146.104 78.9312 144.38 78.2141C142.503 77.4389 140.356 75.3822 138.279 73.3941C134.64 69.8979 130.505 65.9375 125 65.9375C119.495 65.9375 115.365 69.8979 111.721 73.3941C109.644 75.3822 107.503 77.4389 105.62 78.2141C103.906 78.9312 101.037 78.9734 98.2689 79.0156C93.1221 79.0947 87.2896 79.1791 83.2344 83.2344C79.1791 87.2896 79.1211 93.1221 79.0156 98.2689C78.9734 101.037 78.9312 103.896 78.2141 105.62C77.4389 107.497 75.3822 109.644 73.3941 111.721C69.8979 115.36 65.9375 119.495 65.9375 125C65.9375 130.505 69.8979 134.635 73.3941 138.279C75.3822 140.356 77.4389 142.497 78.2141 144.38C78.9312 146.104 78.9734 148.963 79.0156 151.731C79.0947 156.878 79.1791 162.71 83.2344 166.766C87.2896 170.821 93.1221 170.905 98.2689 170.984C101.037 171.027 103.896 171.069 105.62 171.786C107.497 172.561 109.644 174.618 111.721 176.606C115.36 180.102 119.495 184.062 125 184.062C130.505 184.062 134.635 180.102 138.279 176.606C140.356 174.618 142.497 172.561 144.38 171.786C146.104 171.069 148.963 171.027 151.731 170.984C156.878 170.905 162.71 170.821 166.766 166.766C170.821 162.71 170.905 156.878 170.984 151.731C171.027 148.963 171.069 146.104 171.786 144.38C172.561 142.503 174.618 140.356 176.606 138.279C180.102 134.64 184.062 130.505 184.062 125C184.062 119.495 180.102 115.365 176.606 111.721ZM170.515 132.441C167.989 135.078 165.373 137.804 163.987 141.153C162.658 144.369 162.6 148.045 162.547 151.604C162.494 155.296 162.436 159.161 160.796 160.796C159.156 162.431 155.317 162.494 151.604 162.547C148.045 162.6 144.369 162.658 141.153 163.987C137.804 165.373 135.078 167.989 132.441 170.515C129.804 173.041 127.109 175.625 125 175.625C122.891 175.625 120.175 173.03 117.559 170.515C114.944 168 112.196 165.373 108.847 163.987C105.631 162.658 101.955 162.6 98.3955 162.547C94.7041 162.494 90.8387 162.436 89.2039 160.796C87.5691 159.156 87.5059 155.317 87.4531 151.604C87.4004 148.045 87.3424 144.369 86.0135 141.153C84.6266 137.804 82.0109 135.078 79.485 132.441C76.959 129.804 74.375 127.109 74.375 125C74.375 122.891 76.9695 120.175 79.485 117.559C82.0004 114.944 84.6266 112.196 86.0135 108.847C87.3424 105.631 87.4004 101.955 87.4531 98.3955C87.5059 94.7041 87.5639 90.8387 89.2039 89.2039C90.8439 87.5691 94.683 87.5059 98.3955 87.4531C101.955 87.4004 105.631 87.3424 108.847 86.0135C112.196 84.6266 114.922 82.0109 117.559 79.485C120.196 76.959 122.891 74.375 125 74.375C127.109 74.375 129.825 76.9695 132.441 79.485C135.056 82.0004 137.804 84.6266 141.153 86.0135C144.369 87.3424 148.045 87.4004 151.604 87.4531C155.296 87.5059 159.161 87.5639 160.796 89.2039C162.431 90.8439 162.494 94.683 162.547 98.3955C162.6 101.955 162.658 105.631 163.987 108.847C165.373 112.196 167.989 114.922 170.515 117.559C173.041 120.196 175.625 122.891 175.625 125C175.625 127.109 173.03 129.825 170.515 132.441Z" fill="black"/>
<path d="M149.995 110.728C149.782 110.216 149.471 109.751 149.079 109.359C148.687 108.967 148.222 108.655 147.71 108.443C147.198 108.231 146.649 108.122 146.094 108.122C145.54 108.122 144.991 108.231 144.479 108.443C143.966 108.655 143.501 108.967 143.109 109.359L116.563 135.911L106.891 126.234C106.1 125.442 105.026 124.998 103.907 124.998C102.787 124.998 101.713 125.442 100.922 126.234C100.13 127.025 99.6855 128.099 99.6855 129.219C99.6855 130.338 100.13 131.412 100.922 132.203L113.578 144.86C113.97 145.252 114.435 145.563 114.947 145.775C115.46 145.988 116.008 146.097 116.563 146.097C117.117 146.097 117.666 145.988 118.178 145.775C118.691 145.563 119.156 145.252 119.548 144.86L149.079 115.328C149.471 114.937 149.782 114.471 149.995 113.959C150.207 113.447 150.316 112.898 150.316 112.344C150.316 111.789 150.207 111.24 149.995 110.728Z" fill="#174EA6"/>
</svg>
